<svg width="203" height="65" viewBox="0 0 203 65" fill="none" xmlns="http://www.w3.org/2000/svg">
<path d="M192.79 31.4449H182.86V25.4725C182.86 15.9014 174.893 8.11499 165.1 8.11499H145.534C142.371 3.31288 136.858 0.123535 130.593 0.123535H80.5997C73.519 0.123535 67.3956 4.19544 64.5453 10.0678C63.6076 9.78738 62.6483 9.58001 61.6706 9.46768C60.0256 9.27685 58.5412 10.4268 58.3483 12.0315C58.1554 13.6361 59.3296 15.09 60.9715 15.2785C61.6399 15.3555 62.2957 15.5005 62.9329 15.7006C62.263 21.7522 62.8401 31.4446 62.8401 31.4446H18.3015C18.8715 29.6452 20.5893 28.3341 22.6157 28.3341C23.0282 28.3341 23.4494 28.3937 23.8675 28.5114C24.674 28.7388 25.5408 28.6245 26.2568 28.1967C26.9729 27.7689 27.4724 27.0672 27.6338 26.262C28.2203 23.33 30.8691 21.2021 33.9315 21.2021C34.8251 21.2021 35.6911 21.3791 36.5055 21.7284C37.2755 22.0589 38.1517 22.0573 38.9208 21.7238C39.6896 21.3906 40.2793 20.757 40.5462 19.9775C41.163 18.1751 42.8824 16.964 44.8238 16.964C46.0358 16.964 47.1746 17.428 48.0292 18.2713C48.5913 18.8253 49.3565 19.1369 50.1548 19.1369C50.1571 19.1369 50.1595 19.1369 50.1619 19.1369C50.9625 19.135 51.7289 18.8199 52.2902 18.2613C52.8028 17.7515 53.3712 17.2929 53.9789 16.899C55.3567 16.0056 55.807 14.139 54.8186 12.844C52.8842 10.3098 50.2402 12.3089 50.0304 12.4593C48.4625 11.581 46.6802 11.1131 44.8234 11.1131C41.3071 11.1131 38.1045 12.819 36.1804 15.5501C35.4431 15.4178 27.1799 13.8854 22.6252 22.4824C22.622 22.4824 22.6189 22.4824 22.6157 22.4824C17.2769 22.4824 12.8587 26.3974 12.2013 31.4438H10.2229C4.99231 31.4449 0.736328 35.6046 0.736328 40.7175C0.736328 45.8305 4.99231 49.9893 10.2229 49.9893H13.089L21.2097 61.6268C22.6685 63.7162 25.0838 64.9639 27.6712 64.9639H122.059C123.712 64.9639 125.052 63.6543 125.052 62.0384C125.052 60.4226 123.712 59.113 122.059 59.113H27.6716C27.0646 59.113 26.4973 58.8202 26.1553 58.3297L20.335 49.9893H182.679L176.859 58.3297C176.517 58.8199 175.95 59.113 175.343 59.113H145.606C143.953 59.113 142.613 60.423 142.613 62.0384C142.613 63.6539 143.953 64.9639 145.606 64.9639H175.343C177.931 64.9639 180.346 63.7166 181.805 61.6268L189.925 49.9897H192.79C198.021 49.9897 202.276 45.8301 202.276 40.7179C202.277 35.6049 198.021 31.4449 192.79 31.4449ZM165.1 13.9666C171.592 13.9666 176.874 19.1284 176.874 25.4733V31.4457H148.353V17.4818C148.353 16.2776 148.226 15.1023 147.986 13.9666H165.1ZM68.8264 17.4811C68.8264 11.1362 74.1078 5.9744 80.5997 5.9744H130.594C137.085 5.9744 142.367 11.1358 142.367 17.4811V31.4449H68.8264V17.4811ZM192.79 44.1389H10.2229C8.29293 44.1389 6.72233 42.6038 6.72233 40.7175C6.72233 38.8308 8.29293 37.2958 10.2229 37.2958H192.79C194.72 37.2958 196.29 38.8308 196.29 40.7175C196.291 42.6038 194.721 44.1389 192.79 44.1389Z" fill="black"/>
</svg>
